<?xml version="1.0" encoding="utf-8"?>
<!-- Generator: Adobe Illustrator 23.0.2, SVG Export Plug-In . SVG Version: 6.00 Build 0)  -->
<svg version="1.1" id="Layer_1" xmlns="http://www.w3.org/2000/svg" xmlns:xlink="http://www.w3.org/1999/xlink" x="0px" y="0px"
	 viewBox="0 0 800 458" style="enable-background:new 0 0 800 458;" xml:space="preserve">
<style type="text/css">
	.st0{fill-rule:evenodd;clip-rule:evenodd;fill:#FFFFFF;}
	.st1{fill:#939393;}
	.st2{fill:#FFFFFF;}
	.st3{fill-rule:evenodd;clip-rule:evenodd;fill:#939393;}
</style>
<path class="st0" d="M196.2,258.8L367,322.9c13.3,5,28,5,41.2-0.1l166.8-63.4l0,121.9c0,0.1,0,0.2,0,0.3c0,37.5-84.8,68-189.4,68
	c-104.6,0-189.4-30.4-189.4-68c0,0,0-0.1,0-0.1c0-0.1,0-0.2,0-0.2V258.8z"/>
<path class="st1" d="M729.1,350.4c5.7-10.5,12.1-24.1,17.6-36.1c4.2-9.4,16.3-11.5,21.5-2.6c9.1,15.6,15.1,34.2,18.1,46.7
	c0.9,3.9,0.1,8.2-2.9,10.9c-12.9,11.4-32.7,8.4-48.1,2.5C727,368.6,724.9,358.1,729.1,350.4z"/>
<path class="st0" d="M758.1,313.3c-1.6,0.2-3.6,1.4-4.8,3.9c-5.5,12.1-12,25.9-17.8,36.6c-1.2,2.3-1.5,4.9-0.9,7.1
	c0.5,2.1,1.7,3.4,3.3,4c7.2,2.7,15.1,4.7,22.5,4.7c7.3,0.1,13.5-1.7,18.2-5.9c0.5-0.5,1.2-1.7,0.7-3.8c-2.9-12-8.7-29.9-17.3-44.7
	C760.9,313.5,759.5,313.1,758.1,313.3z M756.1,298.8c7-1,14.3,2,18.4,9.1l-6.3,3.7 M756.1,298.8c-6.8,0.9-12.9,5.5-16.1,12.4
	L756.1,298.8z M774.5,308c9.6,16.4,15.8,35.8,18.9,48.6c1.4,5.8,0.4,13.1-5.2,18.1c-8.2,7.3-18.3,9.7-28,9.6
	c-9.6-0.1-19.3-2.6-27.5-5.7c-13.7-5.2-15.7-21.4-10-31.7c5.6-10.2,11.9-23.6,17.4-35.7"/>
<path class="st0" d="M745.1,294.9c3.1-2.6,7.7-2.1,10.3,1c2.5,3.1,3.8,7.6,4.6,11.3c0.9,4.1,1.5,8.9,1.9,13.8c0.8,9.7,1,20.2,0.9,27
	c-0.1,4-3.4,7.2-7.4,7.2c-4-0.1-7.2-3.4-7.2-7.4c0.1-6.4,0-16.4-0.8-25.5c-0.4-4.6-0.9-8.7-1.6-12c-0.4-1.6-0.7-2.9-1.1-3.9
	c-0.3-0.9-0.6-1.2-0.6-1.2c0,0,0,0,0,0C741.5,302.1,741.9,297.5,745.1,294.9z"/>
<path class="st0" d="M754,154.1c6,0,10.9,4.9,10.9,10.9v121.2c0,6-4.9,10.9-10.9,10.9c-6,0-10.9-4.9-10.9-10.9V165
	C743,159,747.9,154.1,754,154.1z"/>
<path class="st2" d="M784.1,290.5c0,16.6-13.5,30.1-30.1,30.1c-16.6,0-30.1-13.5-30.1-30.1c0-16.6,13.5-30.1,30.1-30.1
	C770.6,260.4,784.1,273.9,784.1,290.5z"/>
<path class="st2" d="M364.9,13.9L11.2,154.9c-6.5,2.6-6.4,11.9,0.1,14.4l354.7,133.2c14,5.3,29.5,5.2,43.5-0.1L760,169.2
	c6.6-2.5,6.6-11.7,0.1-14.3L410.7,14C396,8.1,379.6,8.1,364.9,13.9z"/>
<path class="st3" d="M655.8,177.6c1.4,3.8-0.6,8-4.4,9.4L401.8,278c-3.8,1.4-8-0.6-9.4-4.4c-1.4-3.8,0.6-8,4.4-9.4l249.6-91.1
	C650.2,171.8,654.4,173.8,655.8,177.6z"/>
<path class="st3" d="M68.7,160.7c1.4-3.8,5.6-5.7,9.4-4.3l83.4,30.6c3.8,1.4,5.7,5.6,4.3,9.4c-1.4,3.8-5.6,5.7-9.4,4.3l-83.4-30.6
	C69.3,168.7,67.3,164.5,68.7,160.7z"/>
</svg>
