<?xml version="1.0" encoding="utf-8"?>
<!-- Generator: Adobe Illustrator 23.0.2, SVG Export Plug-In . SVG Version: 6.00 Build 0)  -->
<svg version="1.1" id="Layer_1" xmlns="http://www.w3.org/2000/svg" xmlns:xlink="http://www.w3.org/1999/xlink" x="0px" y="0px"
	 viewBox="0 0 800 800" style="enable-background:new 0 0 800 800;" xml:space="preserve">
<style type="text/css">
	.st0{fill:none;stroke:#FFFFFF;stroke-width:40;}
</style>
<path class="st0" d="M600,533.3c0,94.3,0,141.4-29.3,170.7c-29.3,29.3-76.4,29.3-170.7,29.3H300c-94.3,0-141.4,0-170.7-29.3
	C100,674.8,100,627.6,100,533.3l0-166.7c0-94.3,0-141.4,29.3-170.7s76.4-29.3,170.7-29.3h100c94.3,0,141.4,0,170.7,29.3
	C600,225.2,600,272.4,600,366.7V533.3z"/>
<path class="st0" d="M200,166.7c0-55.2,44.8-100,100-100h133.3c125.7,0,188.6,0,227.6,39.1C700,144.8,700,207.6,700,333.3v200
	c0,55.2-44.8,100-100,100"/>
</svg>
