<svg viewBox="0 0 210 50" xmlns="http://www.w3.org/2000/svg" fill="none" xmlns:v="https://vecta.io/nano"><path fill="#ffffff" d="M25.977 3.864a18.57 18.57 0 0 0-9.04-2.342c-3.17 0-6.285.807-9.038 2.342-2.629 1.609-4.686 3.968-5.89 6.758-2.678 6.385-2.678 13.541 0 19.926 1.203 2.78 3.25 5.134 5.867 6.745a18.68 18.68 0 0 0 9.067 2.342c3.18 0 6.304-.807 9.067-2.342 2.612-1.614 4.656-3.967 5.859-6.745 2.678-6.385 2.678-13.54 0-19.926-1.205-2.79-3.262-5.15-5.892-6.758zm-1.84 26.51c-.681 1.29-1.713 2.371-2.983 3.126s-2.729 1.155-4.216 1.155-2.946-.4-4.216-1.155-2.302-1.836-2.983-3.126c-1.553-3.048-2.36-6.405-2.358-9.809s.813-6.76 2.37-9.806c.683-1.283 1.715-2.359 2.982-3.11s2.722-1.147 4.205-1.147a8.25 8.25 0 0 1 4.204 1.148c1.268.75 2.3 1.826 2.983 3.11 1.558 3.045 2.37 6.402 2.371 9.805s-.805 6.761-2.359 9.809zm27.739-19.189c-1.69-.036-3.346.465-4.718 1.429-1.464 1.117-2.594 2.597-3.272 4.286v-5.102h-6.68v36.618h6.686V36.01c.701.79 1.501 1.49 2.381 2.086.664.417 1.388.735 2.147.945.794.21 1.614.312 2.436.305 1.56.036 3.1-.34 4.459-1.086s2.486-1.838 3.263-3.157c1.939-3.194 2.896-6.863 2.759-10.572.161-3.387-.698-6.746-2.47-9.663-.728-1.162-1.759-2.115-2.987-2.76s-2.611-.963-4.006-.917l.002-.006zm1.047 20.573c-.268.826-.795 1.548-1.507 2.064s-1.572.801-2.46.814a5.42 5.42 0 0 1-2.469-.613c-1.021-.593-1.907-1.385-2.6-2.326V21.042a11.96 11.96 0 0 1 2.676-3.024 4.7 4.7 0 0 1 2.877-1.114c.744-.003 1.474.204 2.101.595s1.126.95 1.436 1.61c.923 1.884 1.351 3.963 1.246 6.049.044 2.265-.4 4.514-1.302 6.602l.002-.002zm29.36-17.287a9.36 9.36 0 0 0-3.389-2.501c-1.31-.57-2.738-.838-4.172-.785-2.313-.074-4.588.577-6.494 1.857-1.797 1.285-3.188 3.036-4.014 5.054-.952 2.314-1.42 4.79-1.378 7.283a18.33 18.33 0 0 0 1.624 7.235c.933 2.15 2.564 3.942 4.642 5.1 2.161 1.124 4.582 1.686 7.03 1.632 3.055-.038 6.084-.55 8.973-1.52v-5.102a20.31 20.31 0 0 1-7.517 1.693 8.03 8.03 0 0 1-4.137-.921 6.81 6.81 0 0 1-2.45-2.49c-.684-1.334-1.069-2.795-1.13-4.285h15.232c.003-5.972-.938-10.054-2.822-12.244l.001-.006zM69.76 22.615c.066-1.816.603-3.586 1.56-5.144a3.7 3.7 0 0 1 1.357-1.278c.557-.306 1.185-.468 1.824-.47.585 0 1.16.145 1.669.425a3.36 3.36 0 0 1 1.24 1.168c.885 1.625 1.275 3.463 1.125 5.297l-8.775.002zm34.256-11.43a8.68 8.68 0 0 0-4.446 1.286c-1.695 1.11-3.07 2.626-3.994 4.402v-5.078h-6.68v26.93h6.68V21.786a12.29 12.29 0 0 1 3.222-3.888 5.18 5.18 0 0 1 2.866-.992c.508-.006 1.007.135 1.434.404.448.293.801.707 1.015 1.19a7.97 7.97 0 0 1 .373 2.992v17.241h6.68V19.702a8.6 8.6 0 0 0-.391-3.438 8.75 8.75 0 0 0-1.719-3.026c-.653-.658-1.437-1.179-2.304-1.53a7.04 7.04 0 0 0-2.737-.517l.001-.006zm33.038.613h-5.42l-5.108 8.54-5.34-8.54h-7.606l8.162 13.396-8.522 13.534h5.529l5.696-8.876 13.328 20.16h8.578L129.264 25.05l7.791-13.253zm10.473 21.682c-1.185-.83-2.072-2-2.537-3.349-.614-1.578-.922-3.253-.908-4.94a12.84 12.84 0 0 1 1.573-6.287c.454-.898 1.168-1.647 2.052-2.154a5.37 5.37 0 0 1 2.928-.703 20.3 20.3 0 0 1 6.422 1.446v-5.248c-2.24-.65-4.559-1.004-6.895-1.054-4.331 0-7.611 1.304-9.842 3.911a15.04 15.04 0 0 0-3.348 10.144 15.83 15.83 0 0 0 3.169 10.018 11.08 11.08 0 0 0 4.215 3.181c1.648.712 3.449 1.021 5.248.903a27.34 27.34 0 0 0 7.655-1.202v-5.028a14.58 14.58 0 0 1-6.069 1.43c-1.303.012-2.579-.358-3.663-1.064v-.004zm29.95-19.002c-.918-1.075-2.077-1.93-3.388-2.5s-2.737-.839-4.171-.786c-2.313-.074-4.588.577-6.494 1.857-1.797 1.285-3.188 3.036-4.016 5.054a18.32 18.32 0 0 0-1.376 7.283 18.33 18.33 0 0 0 1.624 7.235c.934 2.15 2.565 3.942 4.644 5.1 2.161 1.124 4.582 1.686 7.03 1.632 3.055-.037 6.084-.55 8.974-1.52v-5.109a20.33 20.33 0 0 1-7.517 1.693 8.04 8.04 0 0 1-4.139-.921c-1.024-.609-1.868-1.466-2.45-2.49a10.33 10.33 0 0 1-1.129-4.285h15.232c.002-5.972-.94-10.054-2.824-12.244v.001zm-12.52 8.144c.066-1.816.603-3.585 1.56-5.143.333-.534.8-.976 1.357-1.284s1.187-.47 1.827-.472c.584 0 1.159.146 1.668.425a3.36 3.36 0 0 1 1.24 1.168c.885 1.625 1.276 3.463 1.126 5.297l-8.778.009zm19.204 16.114h6.68V.006h-6.68v38.73zm11.38-38.73v38.726h6.676V.007h-6.676z"></path></svg>